<svg xmlns="http://www.w3.org/2000/svg" viewBox="0 0 512 512"><rect width="512" height="512" fill="#000000"/><path d="M63.240 0L63.240 0Q40.800 0 27.285-13.515Q13.770-27.030 13.770-46.920L13.770-46.920L13.770-215.730Q13.770-237.150 26.520-251.940Q39.270-266.730 63.240-266.730L63.240-266.730Q86.700-266.730 98.940-251.940Q111.180-237.150 111.180-214.710L111.180-214.710L111.180-189.210L120.360-189.210Q120.360-218.280 130.815-235.110Q141.270-251.940 157.590-259.335Q173.910-266.730 190.230-266.730L190.230-266.730Q229.500-266.730 247.860-238.425Q266.220-210.120 266.220-158.100L266.220-158.100L266.220-46.920Q266.220-27.030 252.960-13.515Q239.700 0 217.260 0L217.260 0Q194.310 0 180.795-13.515Q167.280-27.030 167.280-46.920L167.280-46.920L167.280-137.190Q167.280-155.550 160.395-165.750Q153.510-175.950 140.250-175.950L140.250-175.950Q124.950-175.950 118.065-164.730Q111.180-153.510 111.180-136.170L111.180-136.170L111.180-46.920Q111.180-27.030 98.430-13.515Q85.680 0 63.240 0ZM440.640 1.530L440.640 1.530Q413.610 1.530 391.935-10.710Q370.260-22.950 358.020-45.645Q345.780-68.340 345.780-98.940L345.780-98.940L345.780-188.700L326.910-186.150Q311.610-184.110 299.880-196.860Q288.150-209.610 288.150-228.990L288.150-228.990Q288.150-248.370 299.880-260.865Q311.610-273.360 326.910-271.320L326.910-271.320L345.780-268.770L345.270-303.450Q344.760-323.850 357-335.835Q369.240-347.820 392.700-347.820L392.700-347.820Q416.160-347.820 428.910-335.835Q441.660-323.850 440.640-303.450L440.640-303.450L439.620-268.770L466.650-272.340Q494.190-276.420 508.470-262.395Q522.750-248.370 522.750-228.990L522.750-228.990Q522.750-209.610 508.725-195.585Q494.700-181.560 468.180-185.130L468.180-185.130L439.620-188.700L439.620-112.710Q439.620-106.080 444.210-100.725Q448.800-95.370 455.430-97.410L455.430-97.410Q463.080-99.450 471.495-106.080Q479.910-112.710 493.170-112.710L493.170-112.710Q513.060-112.710 523.770-98.430Q534.480-84.150 534.480-63.240L534.480-63.240Q534.480-46.920 523.005-31.875Q511.530-16.830 490.620-7.650Q469.710 1.530 440.640 1.530Z" fill="#fff" transform="translate(-18.124980926513672, 429.1449890136719)"/></svg>